<?xml version="1.0" encoding="utf-8" standalone="no"?><svg height="345.6pt" stroke-linejoin="round" viewBox="0 0 460.8 345.6" width="460.8pt" xmlns="http://www.w3.org/2000/svg" xmlns:xlink="http://www.w3.org/1999/xlink"><defs stroke-linejoin="round"><clipPath id="a" stroke-linejoin="round"><path d="m57.6 41.472h357.12v266.112h-357.12z"/></clipPath><path id="b" d="m0 0v3.5" stroke="#000" stroke-linejoin="round" stroke-width=".8"/><path id="c" d="m3116 1747q0 634-261 995-261 361-717 361-457 0-718-361-261-361-261-995 0-634 261-995 261-361 718-361 456 0 717 361 261 361 261 995zm-1957 1222q182 312 458 463 277 152 661 152 638 0 1036-506 399-506 399-1331 0-825-399-1332-398-506-1036-506-384 0-661 152-276 152-458 464v-525h-578v4863h578z" stroke-linejoin="round" transform="scale(.015625)"/><path id="d" d="m353 3500h2731v-525l-2162-2516h2162v-459h-2809v525l2163 2516h-2085z" stroke-linejoin="round" transform="scale(.015625)"/><path id="e" d="m603 3500h575v-3500h-575zm0 1363h575v-729h-575z" stroke-linejoin="round" transform="scale(.015625)"/><path id="f" d="m1159 525v-1856h-578v4831h578v-531q182 312 458 463 277 152 661 152 638 0 1036-506 399-506 399-1331 0-825-399-1332-398-506-1036-506-384 0-661 152-276 152-458 464zm1957 1222q0 634-261 995-261 361-717 361-457 0-718-361-261-361-261-995 0-634 261-995 261-361 718-361 456 0 717 361 261 361 261 995z" stroke-linejoin="round" transform="scale(.015625)"/><path id="g" d="m1228 531h2203v-531h-2962v531q359 372 979 998 621 627 780 809 303 340 423 576 121 236 121 464 0 372-261 606-261 235-680 235-297 0-627-103-329-103-704-313v638q381 153 712 231 332 78 607 78 725 0 1156-363 431-362 431-968 0-288-108-546-107-257-392-607-78-91-497-524-418-433-1181-1211z" stroke-linejoin="round" transform="scale(.015625)"/><path id="h" d="m2597 2516q453-97 707-404 255-306 255-756 0-690-475-1069-475-378-1350-378-293 0-604 58-311 58-642 174v609q262-153 574-231 313-78 654-78 593 0 904 234 311 234 311 681 0 413-289 645-289 233-804 233h-544v519h569q465 0 712 186 247 186 247 536 0 359-255 551-254 193-729 193-260 0-557-57-297-56-653-174v562q360 100 674 150 314 50 592 50 719 0 1137-327 419-326 419-882 0-388-222-655-222-267-631-370z" stroke-linejoin="round" transform="scale(.015625)"/><path id="i" d="m2906 1791q0 625-258 968-257 344-723 344-462 0-720-344-258-343-258-968 0-622 258-966 258-344 720-344 466 0 723 344 258 344 258 966zm575-1357q0-893-397-1329-396-436-1215-436-303 0-572 45-269 45-522 139v559q253-137 500-202 247-66 503-66 566 0 847 295 281 295 281 892v285q-178-310-456-463-278-153-666-153-643 0-1037 490-394 491-394 1301 0 812 394 1302 394 491 1037 491 388 0 666-153 278-153 456-462v531h575z" stroke-linejoin="round" transform="scale(.015625)"/><path id="j" d="m3513 3500-1266-1703 1331-1797h-678l-1019 1375-1018-1375h-679l1360 1831-1244 1669h678l928-1247 928 1247z" stroke-linejoin="round" transform="scale(.015625)"/><path id="k" d="m2834 3397v-544q-243 125-506 187-262 63-544 63-428 0-642-131-214-131-214-394 0-200 153-314 153-114 616-217l197-44q612-131 870-370 258-239 258-667 0-488-386-773-386-284-1061-284-281 0-586 55-305 55-642 164v594q319-166 628-249 309-82 613-82 406 0 624 139 219 139 219 392 0 234-158 359-157 125-692 241l-200 47q-534 112-772 345-237 233-237 639 0 494 350 762 350 269 994 269 318 0 599-47 282-46 519-140z" stroke-linejoin="round" transform="scale(.015625)"/><path id="l" d="m1172 4494v-994h1184v-447h-1184v-1900q0-428 117-550 117-122 477-122h590v-481h-590q-666 0-919 248-253 249-253 905v1900h-422v447h422v994z" stroke-linejoin="round" transform="scale(.015625)"/><path id="m" d="m2906 2969v1894h575v-4863h-575v525q-181-312-458-464-276-152-664-152-634 0-1033 506-398 507-398 1332 0 825 398 1331 399 506 1033 506 388 0 664-152 277-151 458-463zm-1959-1222q0-634 261-995 261-361 717-361 456 0 718 361 263 361 263 995 0 634-263 995-262 361-718 361-456 0-717-361-261-361-261-995z" stroke-linejoin="round" transform="scale(.015625)"/><path id="n" d="m0 0h-3.5" stroke="#000" stroke-linejoin="round" stroke-width=".8"/><path id="o" d="m2034 4250q-487 0-733-480-245-479-245-1442 0-959 245-1439 246-480 733-480 491 0 736 480 246 480 246 1439 0 963-246 1442-245 480-736 480zm0 500q785 0 1199-621 414-620 414-1801 0-1178-414-1799-414-620-1199-620-784 0-1198 620-414 621-414 1799 0 1181 414 1801 414 621 1198 621z" stroke-linejoin="round" transform="scale(.015625)"/><path id="p" d="m794 531h1031v3560l-1122-225v575l1116 225h631v-4135h1031v-531h-2687z" stroke-linejoin="round" transform="scale(.015625)"/><path id="q" d="m2419 4116-1594-2491h1594zm-166 550h794v-3041h666v-525h-666v-1100h-628v1100h-2106v609z" stroke-linejoin="round" transform="scale(.015625)"/><path id="r" d="m691 4666h2478v-532h-1900v-1143q137 47 274 70 138 23 276 23 781 0 1237-428 457-428 457-1159 0-753-469-1171-469-417-1322-417-294 0-599 50-304 50-629 150v635q281-153 581-228 300-75 634-75 541 0 856 284 316 284 316 772 0 487-316 771-315 285-856 285-253 0-505-56-251-56-513-175z" stroke-linejoin="round" transform="scale(.015625)"/><path id="s" d="m3328 2828q216 388 516 572 300 184 706 184 547 0 844-383 297-382 297-1088v-2113h-578v2094q0 503-179 746-178 244-543 244-447 0-707-297-259-296-259-809v-1978h-578v2094q0 506-178 748-178 242-550 242-441 0-701-298-259-298-259-808v-1978h-578v3500h578v-544q197 322 472 475 275 153 653 153 382 0 649-194 267-193 395-562z" stroke-linejoin="round" transform="scale(.015625)"/><path id="t" d="m3597 1894v-281h-2644q38-594 358-905 320-311 892-311 331 0 642 81 311 81 618 244v-544q-310-131-635-200-325-69-659-69-838 0-1327 487-489 488-489 1320 0 859 464 1363 464 505 1252 505 706 0 1117-455 411-454 411-1235zm-575 169q-6 471-264 752-258 282-683 282-481 0-770-272-289-272-333-766z" stroke-linejoin="round" transform="scale(.015625)"/><path id="u" d="m1984 4856q-418-718-622-1422-203-703-203-1425 0-721 205-1429 205-708 620-1424h-500q-468 735-701 1444-233 709-233 1409 0 697 231 1403 232 707 703 1444z" stroke-linejoin="round" transform="scale(.015625)"/><path id="v" d="m513 4856h500q468-737 701-1444 233-706 233-1403 0-700-233-1409-233-709-701-1444h-500q415 716 620 1424 205 708 205 1429 0 722-205 1425-205 704-620 1422z" stroke-linejoin="round" transform="scale(.015625)"/><path id="w" d="m684 794h660v-794h-660z" stroke-linejoin="round" transform="scale(.015625)"/><path id="x" d="m703 97v575q238-113 481-172 244-59 479-59 625 0 954 420 330 420 377 1277-181-269-460-413-278-144-615-144-700 0-1108 423-408 424-408 1159 0 718 425 1152 425 435 1131 435 810 0 1236-621 427-620 427-1801 0-1103-524-1761-523-658-1407-658-238 0-482 47-243 47-506 141zm1256 1978q425 0 673 290 249 291 249 798 0 503-249 795-248 292-673 292-425 0-673-292-248-292-248-795 0-507 248-798 248-290 673-290z" stroke-linejoin="round" transform="scale(.015625)"/><path id="y" d="m525 4666h3000v-269l-1694-4397h-659l1594 4134h-2241z" stroke-linejoin="round" transform="scale(.015625)"/><path id="z" d="m4122 4306v-665q-319 297-680 443-361 147-767 147-800 0-1225-489-425-489-425-1414 0-922 425-1411 425-489 1225-489 406 0 767 147 361 147 680 444v-660q-331-225-702-338-370-112-782-112-1060 0-1670 648-609 649-609 1771 0 1125 609 1773 610 649 1670 649 418 0 788-111 371-111 696-333z" stroke-linejoin="round" transform="scale(.015625)"/><path id="A" d="m1959 3097q-462 0-731-361-269-361-269-989 0-628 267-989 268-361 733-361 460 0 728 362 269 363 269 988 0 622-269 986-268 364-728 364zm0 487q750 0 1178-488 429-487 429-1349 0-859-429-1349-428-489-1178-489-753 0-1180 489-426 490-426 1349 0 862 426 1349 427 488 1180 488z" stroke-linejoin="round" transform="scale(.015625)"/><path id="B" d="m2194 1759q-697 0-966-159-269-159-269-544 0-306 202-486 202-179 548-179 479 0 768 339 289 339 289 901v128zm1147 238v-1997h-575v531q-197-318-491-470-294-152-719-152-537 0-855 302-317 302-317 808 0 590 395 890 396 300 1180 300h807v57q0 397-261 614-261 217-733 217-300 0-585-72-284-72-546-216v532q315 122 612 182 297 61 578 61 760 0 1135-394 375-393 375-1193z" stroke-linejoin="round" transform="scale(.015625)"/><path id="C" d="m2631 2963q-97 56-211 82-114 27-251 27-488 0-749-317-261-317-261-911v-1844h-578v3500h578v-544q182 319 472 473 291 155 707 155 59 0 131-8 72-7 159-23z" stroke-linejoin="round" transform="scale(.015625)"/><path id="D" d="m3513 2113v-2113h-575v2094q0 497-194 743-194 247-581 247-466 0-735-297-269-296-269-809v-1978h-578v3500h578v-544q207 316 486 472 280 156 646 156 603 0 912-373 310-373 310-1098z" stroke-linejoin="round" transform="scale(.015625)"/><path id="E" d="m2375 4863v-479h-550q-309 0-430-125-120-125-120-450v-309h947v-447h-947v-3053h-578v3053h-550v447h550v244q0 584 272 851 272 268 862 268z" stroke-linejoin="round" transform="scale(.015625)"/><path id="F" d="m1259 4147v-3628h763q966 0 1414 437 448 438 448 1382 0 937-448 1373-448 436-1414 436zm-631 519h1297q1356 0 1990-564 635-564 635-1764 0-1207-638-1773-637-565-1987-565h-1297z" stroke-linejoin="round" transform="scale(.015625)"/><path id="G" d="m3122 3366v-538q-244 135-489 202-245 67-495 67-560 0-870-355-309-354-309-995 0-641 309-996 310-354 870-354 250 0 495 67 245 67 489 202v-532q-241-112-499-168-257-57-548-57-791 0-1257 497-465 497-465 1341 0 856 470 1346 471 491 1290 491 265 0 518-55 253-54 491-163z" stroke-linejoin="round" transform="scale(.015625)"/><path id="H" d="m3425 4513v-616q-359 172-678 256-319 85-616 85-515 0-795-200-280-200-280-569 0-310 186-468 186-157 705-254l381-78q706-135 1042-474 336-339 336-907 0-679-455-1029-454-350-1332-350-331 0-705 75-373 75-773 222v650q384-215 753-325 369-109 725-109 540 0 834 212 294 213 294 607 0 343-211 537-211 194-692 291l-385 75q-706 140-1022 440-315 300-315 835 0 619 436 975 436 356 1201 356 329 0 669-60 341-59 697-177z" stroke-linejoin="round" transform="scale(.015625)"/></defs><g stroke-linejoin="round"><path d="m0 345.6h460.8v-345.6h-460.8z" fill="#fff"/><g stroke-linejoin="round"><path d="m57.6 307.584h357.12v-266.112h-357.12z" fill="#fff"/><path clip-path="url(#a)" d="m73.832727 307.584h54.109091v-95.487902h-54.109091z" fill="#1f77b4"/><path clip-path="url(#a)" d="m141.469091 307.584h54.109091v-253.44h-54.109091z" fill="#ff7f0e"/><path clip-path="url(#a)" d="m209.105455 307.584h54.10909v-15.107619h-54.10909z" fill="#2ca02c"/><path clip-path="url(#a)" d="m276.741818 307.584h54.109091v-26.147803h-54.109091z" fill="#d62728"/><path clip-path="url(#a)" d="m344.378182 307.584h54.109091v-3.486374h-54.109091z" fill="#9467bd"/><use stroke="#000" stroke-width=".8" x="100.887273" xlink:href="#b" y="307.584"/><g transform="matrix(.1 0 0 -.1 87.344304 322.182437)"><use xlink:href="#c"/><use x="63.476562" xlink:href="#d"/><use x="115.966797" xlink:href="#e"/><use x="143.75" xlink:href="#f"/><use x="207.226562" xlink:href="#g"/></g><use stroke="#000" stroke-width=".8" x="168.523636" xlink:href="#b" y="307.584"/><g transform="matrix(.1 0 0 -.1 154.980668 322.182437)"><use xlink:href="#c"/><use x="63.476562" xlink:href="#d"/><use x="115.966797" xlink:href="#e"/><use x="143.75" xlink:href="#f"/><use x="207.226562" xlink:href="#h"/></g><use stroke="#000" stroke-width=".8" x="236.16" xlink:href="#b" y="307.584"/><g transform="matrix(.1 0 0 -.1 225.798281 322.182437)"><use xlink:href="#i"/><use x="63.476562" xlink:href="#d"/><use x="115.966797" xlink:href="#e"/><use x="143.75" xlink:href="#f"/></g><use stroke="#000" stroke-width=".8" x="303.796364" xlink:href="#b" y="307.584"/><g transform="matrix(.1 0 0 -.1 298.21277 322.182437)"><use xlink:href="#j"/><use x="59.179688" xlink:href="#d"/></g><use stroke="#000" stroke-width=".8" x="371.432727" xlink:href="#b" y="307.584"/><g transform="matrix(.1 0 0 -.1 361.069446 322.182437)"><use xlink:href="#d"/><use x="52.490234" xlink:href="#k"/><use x="104.589844" xlink:href="#l"/><use x="143.798828" xlink:href="#m"/></g><use stroke="#000" stroke-width=".8" x="57.6" xlink:href="#n" y="307.584"/><use transform="matrix(.1 0 0 -.1 44.2375 311.383219)" xlink:href="#o"/><use stroke="#000" stroke-width=".8" x="57.6" xlink:href="#n" y="259.162143"/><use transform="matrix(.1 0 0 -.1 44.2375 262.961362)" xlink:href="#p"/><use stroke="#000" stroke-width=".8" x="57.6" xlink:href="#n" y="210.740286"/><use transform="matrix(.1 0 0 -.1 44.2375 214.539505)" xlink:href="#g"/><use stroke="#000" stroke-width=".8" x="57.6" xlink:href="#n" y="162.318429"/><use transform="matrix(.1 0 0 -.1 44.2375 166.117647)" xlink:href="#h"/><use stroke="#000" stroke-width=".8" x="57.6" xlink:href="#n" y="113.896572"/><use transform="matrix(.1 0 0 -.1 44.2375 117.69579)" xlink:href="#q"/><use stroke="#000" stroke-width=".8" x="57.6" xlink:href="#n" y="65.474715"/><use transform="matrix(.1 0 0 -.1 44.2375 69.273933)" xlink:href="#r"/><g transform="matrix(0 -.1 -.1 0 38.157812 193.919406)"><use xlink:href="#l"/><use x="39.208984" xlink:href="#e"/><use x="66.992188" xlink:href="#s"/><use x="164.404297" xlink:href="#t"/><use x="257.714844" xlink:href="#u"/><use x="296.728516" xlink:href="#k"/><use x="348.828125" xlink:href="#v"/></g></g><g fill="none" stroke="#000" stroke-linecap="square" stroke-linejoin="miter" stroke-width=".8"><path d="m57.6 307.584v-266.112"/><path d="m414.72 307.584v-266.112"/><path d="m57.6 307.584h357.12"/><path d="m57.6 41.472h357.12"/></g><g stroke-linejoin="round"><g transform="matrix(.1 0 0 -.1 86.57321 210.01641)"><use xlink:href="#p"/><use x="63.623047" xlink:href="#w"/><use x="95.410156" xlink:href="#x"/><use x="159.033203" xlink:href="#y"/><use x="222.65625" xlink:href="#g"/></g><g transform="matrix(.1 0 0 -.1 154.209574 52.064313)"><use xlink:href="#r"/><use x="63.623047" xlink:href="#w"/><use x="95.410156" xlink:href="#g"/><use x="159.033203" xlink:href="#h"/><use x="222.65625" xlink:href="#q"/></g><g transform="matrix(.1 0 0 -.1 221.845937 290.396693)"><use xlink:href="#o"/><use x="63.623047" xlink:href="#w"/><use x="95.410156" xlink:href="#h"/><use x="159.033203" xlink:href="#p"/><use x="222.65625" xlink:href="#g"/></g><g transform="matrix(.1 0 0 -.1 292.663551 279.35651)"><use xlink:href="#o"/><use x="63.623047" xlink:href="#w"/><use x="95.410156" xlink:href="#r"/><use x="159.033203" xlink:href="#q"/></g><g transform="matrix(.1 0 0 -.1 357.118665 302.017939)"><use xlink:href="#o"/><use x="63.623047" xlink:href="#w"/><use x="95.410156" xlink:href="#o"/><use x="159.033203" xlink:href="#y"/><use x="222.65625" xlink:href="#g"/></g><g transform="matrix(.12 0 0 -.12 123.57 35.472)"><use xlink:href="#z"/><use x="69.824219" xlink:href="#A"/><use x="131.005859" xlink:href="#s"/><use x="228.417969" xlink:href="#f"/><use x="291.894531" xlink:href="#B"/><use x="353.173828" xlink:href="#C"/><use x="394.287109" xlink:href="#e"/><use x="422.070312" xlink:href="#k"/><use x="474.169922" xlink:href="#A"/><use x="535.351562" xlink:href="#D"/><use x="630.517578" xlink:href="#A"/><use x="691.699219" xlink:href="#E"/><use x="758.691406" xlink:href="#F"/><use x="835.693359" xlink:href="#t"/><use x="897.216797" xlink:href="#G"/><use x="952.197266" xlink:href="#A"/><use x="1013.378906" xlink:href="#s"/><use x="1110.791016" xlink:href="#f"/><use x="1174.267578" xlink:href="#C"/><use x="1213.130859" xlink:href="#t"/><use x="1274.654297" xlink:href="#k"/><use x="1326.753906" xlink:href="#k"/><use x="1378.853516" xlink:href="#e"/><use x="1406.636719" xlink:href="#A"/><use x="1467.818359" xlink:href="#D"/><use x="1562.984375" xlink:href="#H"/><use x="1626.460938" xlink:href="#f"/><use x="1689.9375" xlink:href="#t"/><use x="1751.460938" xlink:href="#t"/><use x="1812.984375" xlink:href="#m"/></g></g></g></svg>